<svg width="25" height="24" viewBox="0 0 25 24" fill="none" xmlns="http://www.w3.org/2000/svg">
<path d="M23.12 17.5785L20.64 15.5785C19.8 14.8985 18.6 14.8581 17.72 15.4985L15.36 17.2185C15.04 17.4585 14.6004 17.4185 14.32 17.1385L10.44 13.6185L6.88 9.69847C6.6 9.41847 6.56 8.97847 6.8 8.65847L8.52 6.29847C9.16 5.41847 9.12 4.21846 8.44 3.37846L6.44 0.898466C5.56 -0.221534 3.88 -0.301534 2.88 0.698466L0.72 2.85847C0.24 3.33847 0 4.01847 0 4.65847C0.28 9.73847 2.6 14.5785 6 17.9785C9.4 21.3785 14.2 23.6985 19.32 23.9785C20 24.0185 20.64 23.7381 21.12 23.2581L23.28 21.0985C24.36 20.1385 24.24 18.4585 23.12 17.5785Z" fill="white"/>
</svg>
