<svg width="24" height="25" viewBox="0 0 24 25" fill="none" xmlns="http://www.w3.org/2000/svg">
<g clip-path="url(#clip0_65_616)">
<path d="M4.61516 5.41667L4.28601 3.33333H3.10456C2.92833 2.61667 2.31509 2.08333 1.58053 2.08333C0.708869 2.08333 0 2.83083 0 3.75C0 4.66917 0.708869 5.41667 1.58053 5.41667C2.31509 5.41667 2.92833 4.88333 3.10496 4.16667H3.61626L3.81383 5.41667H3.79881L5.84205 16.2567C4.86804 16.335 4.05684 17.1258 3.96121 18.1208C3.9051 18.7063 4.08766 19.2925 4.46224 19.7283C4.83722 20.1654 5.37144 20.4167 5.927 20.4167H6.71727C6.71727 21.7954 7.78057 22.9167 9.08807 22.9167C10.3956 22.9167 11.4589 21.7954 11.4589 20.4167H15.8053C15.8053 21.7954 16.8686 22.9167 18.1761 22.9167C19.4836 22.9167 20.5469 21.7954 20.5469 20.4167H22.1275C22.346 20.4167 22.5226 20.2304 22.5226 20C22.5226 19.7696 22.346 19.5833 22.1275 19.5833H20.4086C20.0823 18.6138 19.2063 17.9167 18.1761 17.9167C17.146 17.9167 16.27 18.6138 15.9436 19.5833H11.3206C10.9942 18.6138 10.1182 17.9167 9.08807 17.9167C8.05796 17.9167 7.18195 18.6138 6.85557 19.5833H5.927C5.5943 19.5833 5.27424 19.4325 5.04823 19.1696C4.82023 18.9033 4.71315 18.5608 4.74753 18.2046C4.80759 17.5758 5.35841 17.0838 6.00129 17.0838H6.31384C6.31937 17.0838 6.32372 17.0838 6.32925 17.0838H21.7371C22.8241 17.0833 23.708 16.1513 23.708 15.0054V5.41667H4.61516ZM1.58053 4.58333C1.1447 4.58333 0.790267 4.20958 0.790267 3.75C0.790267 3.29042 1.1447 2.91667 1.58053 2.91667C2.01637 2.91667 2.3708 3.29042 2.3708 3.75C2.3708 4.20958 2.01637 4.58333 1.58053 4.58333ZM18.1761 18.75C19.0478 18.75 19.7567 19.4975 19.7567 20.4167C19.7567 21.3358 19.0478 22.0833 18.1761 22.0833C17.3045 22.0833 16.5956 21.3358 16.5956 20.4167C16.5956 19.4975 17.3045 18.75 18.1761 18.75ZM9.08807 18.75C9.95973 18.75 10.6686 19.4975 10.6686 20.4167C10.6686 21.3358 9.95973 22.0833 9.08807 22.0833C8.21641 22.0833 7.50754 21.3358 7.50754 20.4167C7.50754 19.4975 8.21641 18.75 9.08807 18.75ZM22.9177 15.0054C22.9177 15.6917 22.3883 16.25 21.7375 16.25H6.64654L4.76175 6.25H22.9177V15.0054Z" fill="white"/>
</g>
<defs>
<clipPath id="clip0_65_616">
<rect width="23.708" height="25" fill="white"/>
</clipPath>
</defs>
</svg>
