<svg width="50" height="50" viewBox="0 0 50 50" fill="none" xmlns="http://www.w3.org/2000/svg">
<path d="M41.3142 4.46826H31.8263C31.3565 1.92939 29.1274 0 26.4546 0H23.545C20.8722 0 18.6431 1.92939 18.1733 4.46826H8.68545C8.13535 4.46826 7.68945 4.91426 7.68945 5.46426V11.5952C7.68945 12.1452 8.13535 12.5912 8.68545 12.5912H9.97549V49.004C9.97549 49.554 10.4214 50 10.9715 50H39.0281C39.5782 50 40.0241 49.554 40.0241 49.004V12.5912H41.3142C41.8643 12.5912 42.3102 12.1452 42.3102 11.5952V5.46426C42.3102 4.91426 41.8643 4.46826 41.3142 4.46826ZM23.545 1.99199H26.4546C28.0232 1.99199 29.3522 3.0375 29.7812 4.46816H20.2182C20.6475 3.0375 21.9764 1.99199 23.545 1.99199ZM38.032 48.008H11.9676V12.5912H38.032V48.008ZM40.3183 10.5992H9.68145V6.46025H40.3182V10.5992H40.3183Z" fill="#838383"/>
<path d="M25.0001 14.7559C23.3049 14.7559 21.9258 16.135 21.9258 17.8301V42.7693C21.9258 44.4645 23.3049 45.8437 25.0001 45.8437C26.6953 45.8437 28.0744 44.4645 28.0744 42.7693V17.8301C28.0744 16.1349 26.6953 14.7559 25.0001 14.7559ZM26.0823 42.7693C26.0823 43.366 25.5968 43.8516 25.0001 43.8516C24.4034 43.8516 23.9179 43.366 23.9179 42.7693V17.8301C23.9179 17.2334 24.4034 16.7479 25.0001 16.7479C25.5968 16.7479 26.0823 17.2334 26.0823 17.8301V42.7693Z" fill="#838383"/>
<path d="M16.7906 14.7559C15.0954 14.7559 13.7163 16.135 13.7163 17.8301V42.7693C13.7163 44.4645 15.0955 45.8437 16.7906 45.8437C18.4858 45.8437 19.8649 44.4645 19.8649 42.7693V17.8301C19.8649 16.1349 18.4858 14.7559 16.7906 14.7559ZM17.8729 42.7693C17.8729 43.366 17.3874 43.8516 16.7907 43.8516C16.194 43.8516 15.7085 43.366 15.7085 42.7693V17.8301C15.7085 17.2334 16.194 16.7479 16.7907 16.7479C17.3874 16.7479 17.8729 17.2334 17.8729 17.8301V42.7693Z" fill="#838383"/>
<path d="M33.2091 14.7559C31.5139 14.7559 30.1348 16.135 30.1348 17.8301V42.7693C30.1348 44.4645 31.5139 45.8437 33.2091 45.8437C34.9043 45.8437 36.2834 44.4645 36.2834 42.7693V17.8301C36.2834 16.1349 34.9043 14.7559 33.2091 14.7559ZM34.2913 42.7693C34.2913 43.366 33.8058 43.8516 33.2091 43.8516C32.6124 43.8516 32.1269 43.366 32.1269 42.7693V17.8301C32.1269 17.2334 32.6124 16.7479 33.2091 16.7479C33.8058 16.7479 34.2913 17.2334 34.2913 17.8301V42.7693Z" fill="#838383"/>
<path d="M21.363 7.79346H11.5951C11.045 7.79346 10.5991 8.23945 10.5991 8.78945C10.5991 9.33945 11.045 9.78545 11.5951 9.78545H21.363C21.9131 9.78545 22.359 9.33945 22.359 8.78945C22.359 8.23945 21.9131 7.79346 21.363 7.79346Z" fill="#838383"/>
<path d="M25.3119 7.79346H24.7924C24.2423 7.79346 23.7964 8.23945 23.7964 8.78945C23.7964 9.33945 24.2423 9.78545 24.7924 9.78545H25.3119C25.862 9.78545 26.3079 9.33945 26.3079 8.78945C26.308 8.23945 25.862 7.79346 25.3119 7.79346Z" fill="#838383"/>
</svg>
