<svg width="38" height="38" viewBox="0 0 38 38" fill="none" xmlns="http://www.w3.org/2000/svg">
<g clip-path="url(#clip0_99_289)">
<path d="M38 7.62183V4.43264C38 2.46194 36.3967 0.858676 34.426 0.858676H28.2827C27.7275 0.518593 27.0751 0.322266 26.3777 0.322266H3.65862C1.64131 0.322153 0 1.96347 0 3.98077V34.0195C0 36.0369 1.64131 37.6781 3.65862 37.6781H26.3776C27.0751 37.6781 27.7276 37.4817 28.2829 37.1415H34.4259C36.3966 37.1415 37.9999 35.5382 37.9999 33.5675V30.3783C37.9999 29.2847 37.5056 28.3047 36.7293 27.6487C37.5056 26.9926 37.9999 26.0126 37.9999 24.919V21.7297C37.9999 20.636 37.5056 19.6561 36.7293 19C37.5056 18.344 37.9999 17.364 37.9999 16.2704V13.0812C37.9999 11.9875 37.5056 11.0076 36.7293 10.3515C37.5057 9.69531 38 8.71536 38 7.62183ZM28.3477 34.0195C28.3477 35.1057 27.4639 35.9895 26.3776 35.9895H3.65862C2.5724 35.9895 1.68859 35.1057 1.68859 34.0195V3.98077C1.68859 2.89456 2.5724 2.01075 3.65862 2.01075H26.3776C27.4639 2.01075 28.3477 2.89456 28.3477 3.98077V34.0195ZM36.3114 33.5676C36.3114 34.6072 35.4656 35.453 34.426 35.453H29.7436C29.9319 35.0126 30.0364 34.5281 30.0364 34.0196V28.4931H34.426C35.4656 28.4931 36.3114 29.3388 36.3114 30.3784V33.5676ZM36.3114 24.919C36.3114 25.9586 35.4656 26.8044 34.426 26.8044H30.0364V19.8443H34.426C35.4656 19.8443 36.3114 20.6901 36.3114 21.7297V24.919ZM36.3114 16.2704C36.3114 17.31 35.4656 18.1557 34.426 18.1557H30.0364V11.1957H34.426C35.4656 11.1957 36.3114 12.0414 36.3114 13.0811V16.2704ZM36.3114 7.62183C36.3114 8.66144 35.4656 9.5072 34.426 9.5072H30.0364V3.98077C30.0364 3.47217 29.9318 2.98765 29.7435 2.54716H34.426C35.4656 2.54716 36.3114 3.39292 36.3114 4.43253V7.62183Z" fill="#4D4D4D"/>
<path d="M25.4869 25.8945H4.54932V27.5831H25.4869V25.8945Z" fill="#4D4D4D"/>
<path d="M7.52998 23.2127H22.5061C22.7609 23.2127 23.002 23.0978 23.1623 22.8998C23.3226 22.7018 23.385 22.442 23.332 22.1929C22.9273 20.2896 21.8605 18.5708 20.3517 17.35C21.3403 16.1322 21.8927 14.599 21.8927 13.0135C21.8927 9.22272 18.8087 6.13867 15.0179 6.13867C11.2271 6.13867 8.14306 9.22272 8.14306 13.0135C8.14306 14.599 8.69556 16.1322 9.68407 17.35C8.17537 18.5708 7.10862 20.2895 6.70404 22.1929C6.65102 22.442 6.71338 22.7019 6.87368 22.8998C7.0341 23.0978 7.27523 23.2127 7.52998 23.2127ZM11.4083 18.1901C11.6321 18.0499 11.7775 17.8129 11.801 17.5499C11.8245 17.2868 11.7237 17.0279 11.5283 16.8501C10.45 15.8687 9.83165 14.4703 9.83165 13.0135C9.83165 10.1538 12.1582 7.82727 15.0179 7.82727C17.8776 7.82727 20.2041 10.1538 20.2041 13.0135C20.2041 14.4703 19.5856 15.8687 18.5074 16.8501C18.3121 17.0279 18.2112 17.2868 18.2348 17.5499C18.2583 17.8129 18.4036 18.0498 18.6274 18.1901C19.8831 18.9768 20.8491 20.159 21.3765 21.5242H8.65932C9.18672 20.159 10.1527 18.9766 11.4083 18.1901Z" fill="#4D4D4D"/>
<path d="M22.8507 29.2339H7.18555V30.9225H22.8507V29.2339Z" fill="#4D4D4D"/>
</g>
<defs>
<clipPath id="clip0_99_289">
<rect width="38" height="38" fill="white"/>
</clipPath>
</defs>
</svg>
