<svg width="20" height="25" viewBox="0 0 20 25" fill="none" xmlns="http://www.w3.org/2000/svg">
<path d="M0.704 1.384C0.704 0.808 1.056 0.52 1.76 0.52C2.208 0.52 2.976 0.776 4.064 1.288C5.152 1.736 6.336 2.344 7.616 3.112C8.96 3.816 10.336 4.648 11.744 5.608C13.216 6.504 14.528 7.4 15.68 8.296C16.832 9.192 17.792 10.056 18.56 10.888C19.328 11.656 19.712 12.264 19.712 12.712C19.712 13.352 18.912 14.344 17.312 15.688C15.712 17.032 13.856 18.376 11.744 19.72C9.696 21.064 7.68 22.248 5.696 23.272C3.776 24.296 2.464 24.808 1.76 24.808C1.056 24.808 0.704 24.52 0.704 23.944C0.704 23.56 1.088 23.016 1.856 22.312C2.624 21.544 3.52 20.68 4.544 19.72C5.632 18.696 6.752 17.608 7.904 16.456C9.056 15.24 10.016 13.992 10.784 12.712C10.016 11.432 9.056 10.216 7.904 9.064C6.752 7.848 5.632 6.728 4.544 5.704C3.52 4.68 2.624 3.816 1.856 3.112C1.088 2.344 0.704 1.768 0.704 1.384Z" fill="#FFE178"/>
</svg>
