<svg width="38" height="38" viewBox="0 0 38 38" fill="none" xmlns="http://www.w3.org/2000/svg">
<path opacity="0.4" fill-rule="evenodd" clip-rule="evenodd" d="M11.7521 31.3823C12.4203 31.3823 12.9634 31.9254 12.9634 32.5936C12.9634 33.2617 12.4203 33.8032 11.7521 33.8032C11.084 33.8032 10.5425 33.2617 10.5425 32.5936C10.5425 31.9254 11.084 31.3823 11.7521 31.3823Z" stroke="#4D4D4D" stroke-width="1.5" stroke-linecap="round" stroke-linejoin="round"/>
<path opacity="0.4" fill-rule="evenodd" clip-rule="evenodd" d="M29.5682 31.3823C30.2363 31.3823 30.7794 31.9254 30.7794 32.5936C30.7794 33.2617 30.2363 33.8032 29.5682 33.8032C28.9 33.8032 28.3569 33.2617 28.3569 32.5936C28.3569 31.9254 28.9 31.3823 29.5682 31.3823Z" stroke="#4D4D4D" stroke-width="1.5" stroke-linecap="round" stroke-linejoin="round"/>
<path d="M4.354 5.146L7.64734 5.716L9.17209 23.8816C9.29559 25.362 10.5322 26.4988 12.0173 26.4988H29.2947C30.7134 26.4988 31.9167 25.457 32.121 24.051L33.6235 13.6675C33.8088 12.3866 32.816 11.2402 31.5225 11.2402H8.17617" stroke="#4D4D4D" stroke-width="1.5" stroke-linecap="round" stroke-linejoin="round"/>
<path opacity="0.4" d="M22.3652 17.0918H26.7558" stroke="#4D4D4D" stroke-width="1.5" stroke-linecap="round" stroke-linejoin="round"/>
</svg>
