<svg width="38" height="38" viewBox="0 0 38 38" fill="none" xmlns="http://www.w3.org/2000/svg">
<path d="M20.5834 6.34713C20.5837 5.47269 19.8751 4.76353 19.0007 4.76318C18.1262 4.76285 17.417 5.47146 17.4167 6.3459L17.4116 19.0181C17.4113 19.8925 18.12 20.6017 18.9945 20.602C19.8688 20.6023 20.578 19.8936 20.5783 19.0193L20.5834 6.34713Z" fill="#838383"/>
<path d="M6.3335 20.5701C6.3335 17.0722 7.75123 13.9056 10.0434 11.6134L12.2826 13.8526C10.5635 15.5717 9.50016 17.9466 9.50016 20.5701C9.50016 25.8167 13.7535 30.0701 19.0002 30.0701C24.2469 30.0701 28.5002 25.8167 28.5002 20.5701C28.5002 17.9466 27.4368 15.5716 25.7176 13.8525L27.9568 11.6133C30.2491 13.9055 31.6668 17.0722 31.6668 20.5701C31.6668 27.5655 25.9958 33.2367 19.0002 33.2367C12.0046 33.2367 6.3335 27.5655 6.3335 20.5701Z" fill="#838383"/>
</svg>
