<svg width="30" height="30" viewBox="0 0 30 30" fill="none" xmlns="http://www.w3.org/2000/svg">
<path d="M29.8361 29.0411L21.0954 20.2885C23.3249 18.1356 24.706 15.1677 24.706 11.8944C24.706 5.3355 19.1648 0 12.353 0C5.54121 0 0 5.3355 0 11.8944C0 18.4533 5.54121 23.7888 12.353 23.7888C15.343 23.7888 18.0872 22.7597 20.226 21.052L28.9878 29.8261C29.1031 29.9422 29.2572 30 29.4119 30C29.559 30 29.7055 29.9473 29.8196 29.842C30.0537 29.625 30.0608 29.2665 29.8361 29.0411ZM12.353 22.656C6.19004 22.656 1.17648 17.8286 1.17648 11.8944C1.17648 5.96024 6.19004 1.1328 12.353 1.1328C18.516 1.1328 23.5296 5.96024 23.5296 11.8944C23.5296 17.8286 18.5154 22.656 12.353 22.656Z" fill="#FFD1A6"/>
</svg>
